<mxfile host="app.diagrams.net" modified="2024-06-27T19:17:28.397Z" agent="Mozilla/5.0 (Macintosh; Intel Mac OS X 10_15_7) AppleWebKit/537.36 (KHTML, like Gecko) Chrome/126.0.0.0 Safari/537.36" version="24.2.9" etag="mSp61T53ejkxY7SapJv2" type="github">
  <diagram name="Page-1" id="0NiseQ_JjiquNzcwRKD4">
    <mxGraphModel>
      <root>
        <mxCell id="0" />
        <mxCell id="1" parent="0" />
      </root>
    </mxGraphModel>
  </diagram>
</mxfile>
